<svg width="203" height="76" viewBox="0 0 203 76" fill="none" xmlns="http://www.w3.org/2000/svg">
<path d="M122.324 28.48C122.324 30.9167 121.464 33.0237 119.744 34.801C118.024 36.5497 115.516 37.811 112.219 38.585C113.996 39.0723 115.344 39.875 116.261 40.993C117.178 42.0823 117.637 43.3437 117.637 44.777C117.637 47.0417 116.92 49.0053 115.487 50.668C114.082 52.3307 112.018 53.6207 109.295 54.538C106.572 55.4267 103.289 55.871 99.448 55.871C98.0147 55.871 96.868 55.828 96.008 55.742C95.9793 56.5447 95.6353 57.1467 94.976 57.548C94.3167 57.9493 93.471 58.15 92.439 58.15C91.407 58.15 90.6903 57.9207 90.289 57.462C89.9163 57.0033 89.7587 56.3297 89.816 55.441C90.074 51.4277 90.5757 47.228 91.321 42.842C92.0663 38.4273 93.0123 34.1703 94.159 30.071C94.3597 29.3543 94.761 28.8527 95.363 28.566C95.965 28.2793 96.7533 28.136 97.728 28.136C99.4767 28.136 100.351 28.6233 100.351 29.598C100.351 29.9993 100.265 30.458 100.093 30.974C99.3477 33.21 98.6023 36.2487 97.857 40.09C97.1117 43.9027 96.5813 47.5433 96.266 51.012C97.642 51.1267 98.76 51.184 99.62 51.184C103.633 51.184 106.572 50.6107 108.435 49.464C110.327 48.2887 111.273 46.798 111.273 44.992C111.273 43.7307 110.728 42.67 109.639 41.81C108.578 40.95 106.787 40.477 104.264 40.391C103.691 40.3623 103.289 40.219 103.06 39.961C102.831 39.703 102.716 39.2873 102.716 38.714C102.716 37.8827 102.888 37.209 103.232 36.693C103.576 36.177 104.207 35.9047 105.124 35.876C107.159 35.8187 108.994 35.5177 110.628 34.973C112.291 34.4283 113.595 33.6687 114.541 32.694C115.487 31.6907 115.96 30.5297 115.96 29.211C115.96 27.5483 115.143 26.244 113.509 25.298C111.875 24.3233 109.367 23.836 105.984 23.836C102.917 23.836 99.9497 24.2373 97.083 25.04C94.2163 25.814 91.7797 26.803 89.773 28.007C88.8557 28.5517 88.0817 28.824 87.451 28.824C86.935 28.824 86.5337 28.652 86.247 28.308C85.989 27.9353 85.86 27.4767 85.86 26.932C85.86 26.2153 86.0033 25.599 86.29 25.083C86.6053 24.567 87.3363 23.9793 88.483 23.32C90.891 21.944 93.7147 20.869 96.954 20.095C100.193 19.321 103.504 18.934 106.887 18.934C112.076 18.934 115.946 19.8083 118.497 21.557C121.048 23.3057 122.324 25.6133 122.324 28.48ZM127.425 33.124C126.221 33.124 125.318 32.8517 124.716 32.307C124.114 31.7337 123.813 30.9453 123.813 29.942C123.813 28.9387 124.2 28.1073 124.974 27.448C125.776 26.76 126.765 26.416 127.941 26.416C129.001 26.416 129.861 26.674 130.521 27.19C131.18 27.706 131.51 28.437 131.51 29.383C131.51 30.5297 131.137 31.447 130.392 32.135C129.646 32.7943 128.657 33.124 127.425 33.124ZM127.081 56.215C125.217 56.215 123.856 55.5557 122.996 54.237C122.164 52.9183 121.749 51.1697 121.749 48.991C121.749 47.701 121.906 46.0527 122.222 44.046C122.566 42.0107 122.996 40.1187 123.512 38.37C123.77 37.4527 124.114 36.822 124.544 36.478C124.974 36.134 125.662 35.962 126.608 35.962C128.07 35.962 128.801 36.4493 128.801 37.424C128.801 38.1407 128.528 39.8033 127.984 42.412C127.296 45.5653 126.952 47.701 126.952 48.819C126.952 49.679 127.066 50.3383 127.296 50.797C127.525 51.2557 127.912 51.485 128.457 51.485C128.973 51.485 129.618 51.1267 130.392 50.41C131.166 49.6933 132.198 48.561 133.488 47.013C133.832 46.6117 134.219 46.411 134.649 46.411C135.021 46.411 135.308 46.583 135.509 46.927C135.738 47.271 135.853 47.744 135.853 48.346C135.853 49.4927 135.58 50.3813 135.036 51.012C132.198 54.4807 129.546 56.215 127.081 56.215ZM140.372 57.161C138.881 57.161 137.734 56.817 136.932 56.129C136.158 55.441 135.771 54.667 135.771 53.807C135.771 53.0617 136.043 52.4167 136.588 51.872C137.132 51.3273 137.935 51.055 138.996 51.055C139.368 51.055 139.798 51.098 140.286 51.184C140.802 51.2413 141.189 51.2843 141.447 51.313C141.418 50.5677 141.246 49.8653 140.931 49.206C140.644 48.5467 140.271 47.916 139.813 47.314C139.354 46.6833 138.924 46.1387 138.523 45.68C137.634 47.3713 136.745 48.776 135.857 49.894C134.997 51.012 134.051 52.0727 133.019 53.076C132.503 53.592 131.958 53.85 131.385 53.85C130.926 53.85 130.553 53.6923 130.267 53.377C129.98 53.033 129.837 52.6173 129.837 52.13C129.837 51.5567 130.037 51.0263 130.439 50.539L130.998 49.851C132.574 47.9017 133.764 46.2963 134.567 45.035C135.054 44.2037 135.627 43.1 136.287 41.724C136.946 40.3193 137.591 38.8717 138.222 37.381C138.766 36.1197 139.899 35.489 141.619 35.489C142.421 35.489 142.98 35.5607 143.296 35.704C143.611 35.8473 143.769 36.0767 143.769 36.392C143.769 36.564 143.711 36.8363 143.597 37.209C143.482 37.5817 143.324 37.9543 143.124 38.327C142.608 39.359 142.35 40.2333 142.35 40.95C142.35 41.38 142.493 41.853 142.78 42.369C143.095 42.885 143.568 43.53 144.199 44.304C145.116 45.508 145.804 46.54 146.263 47.4C146.75 48.2313 146.994 49.1487 146.994 50.152C146.994 50.4387 146.965 50.84 146.908 51.356C148.312 50.8113 149.961 49.3637 151.853 47.013C152.197 46.6117 152.584 46.411 153.014 46.411C153.386 46.411 153.673 46.583 153.874 46.927C154.103 47.271 154.218 47.744 154.218 48.346C154.218 49.4353 153.945 50.324 153.401 51.012C151.967 52.7893 150.591 54.0077 149.273 54.667C147.983 55.2977 146.377 55.6417 144.457 55.699C143.31 56.6737 141.948 57.161 140.372 57.161ZM174.589 46.411C174.962 46.411 175.248 46.583 175.449 46.927C175.678 47.271 175.793 47.744 175.793 48.346C175.793 49.4927 175.521 50.3813 174.976 51.012C173.657 52.5313 172.296 53.7783 170.891 54.753C169.515 55.7277 167.938 56.215 166.161 56.215C164.699 56.215 163.595 55.7993 162.85 54.968C162.105 54.108 161.732 52.8753 161.732 51.27C161.732 50.4673 161.933 49.034 162.334 46.97C162.707 45.164 162.893 43.917 162.893 43.229C162.893 42.7703 162.735 42.541 162.42 42.541C162.047 42.541 161.517 43.0283 160.829 44.003C160.141 44.949 159.453 46.2103 158.765 47.787C158.077 49.3637 157.518 51.0263 157.088 52.775C156.543 55.0683 155.196 56.215 153.046 56.215C152.186 56.215 151.613 55.914 151.326 55.312C151.068 54.6813 150.939 53.5633 150.939 51.958C150.939 51.0407 150.953 50.3097 150.982 49.765L151.025 46.325C151.025 41.9103 151.469 37.3093 152.358 32.522C153.275 27.7347 154.608 23.7213 156.357 20.482C158.134 17.214 160.256 15.58 162.721 15.58C164.04 15.58 165.1 16.1533 165.903 17.3C166.734 18.418 167.15 19.88 167.15 21.686C167.15 24.5813 166.304 27.5913 164.613 30.716C162.922 33.812 160.17 37.4383 156.357 41.595C156.271 43.0857 156.228 44.6193 156.228 46.196C157.174 43.7593 158.22 41.7813 159.367 40.262C160.542 38.714 161.689 37.6103 162.807 36.951C163.954 36.2917 165 35.962 165.946 35.962C167.809 35.962 168.741 36.8937 168.741 38.757C168.741 39.875 168.426 41.896 167.795 44.82C167.25 47.314 166.978 48.9623 166.978 49.765C166.978 50.9117 167.394 51.485 168.225 51.485C168.798 51.485 169.472 51.141 170.246 50.453C171.049 49.7363 172.109 48.5897 173.428 47.013C173.772 46.6117 174.159 46.411 174.589 46.411ZM161.818 19.837C161.302 19.837 160.729 20.5823 160.098 22.073C159.467 23.535 158.851 25.5273 158.249 28.05C157.676 30.544 157.203 33.2673 156.83 36.22C158.607 34.1273 160.069 31.8483 161.216 29.383C162.391 26.9177 162.979 24.6817 162.979 22.675C162.979 21.7577 162.879 21.0553 162.678 20.568C162.477 20.0807 162.191 19.837 161.818 19.837ZM177.941 33.124C176.737 33.124 175.834 32.8517 175.232 32.307C174.63 31.7337 174.329 30.9453 174.329 29.942C174.329 28.9387 174.716 28.1073 175.49 27.448C176.293 26.76 177.282 26.416 178.457 26.416C179.518 26.416 180.378 26.674 181.037 27.19C181.696 27.706 182.026 28.437 182.026 29.383C182.026 30.5297 181.653 31.447 180.908 32.135C180.163 32.7943 179.174 33.124 177.941 33.124ZM177.597 56.215C175.734 56.215 174.372 55.5557 173.512 54.237C172.681 52.9183 172.265 51.1697 172.265 48.991C172.265 47.701 172.423 46.0527 172.738 44.046C173.082 42.0107 173.512 40.1187 174.028 38.37C174.286 37.4527 174.63 36.822 175.06 36.478C175.49 36.134 176.178 35.962 177.124 35.962C178.586 35.962 179.317 36.4493 179.317 37.424C179.317 38.1407 179.045 39.8033 178.5 42.412C177.812 45.5653 177.468 47.701 177.468 48.819C177.468 49.679 177.583 50.3383 177.812 50.797C178.041 51.2557 178.428 51.485 178.973 51.485C179.489 51.485 180.134 51.1267 180.908 50.41C181.682 49.6933 182.714 48.561 184.004 47.013C184.348 46.6117 184.735 46.411 185.165 46.411C185.538 46.411 185.824 46.583 186.025 46.927C186.254 47.271 186.369 47.744 186.369 48.346C186.369 49.4927 186.097 50.3813 185.552 51.012C182.714 54.4807 180.062 56.215 177.597 56.215ZM200.262 41.853C200.893 41.853 201.423 42.0823 201.853 42.541C202.312 42.971 202.541 43.5157 202.541 44.175C202.541 44.5477 202.455 44.949 202.283 45.379C201.825 46.4397 201.18 47.3283 200.348 48.045C199.517 48.7617 198.6 49.12 197.596 49.12C196.794 49.12 196.106 48.8333 195.532 48.26C194.988 47.6867 194.715 46.9127 194.715 45.938C194.715 45.3933 194.744 44.8057 194.801 44.175C194.859 43.7163 194.887 43.401 194.887 43.229C194.887 42.9997 194.83 42.8277 194.715 42.713C194.629 42.5983 194.515 42.541 194.371 42.541C193.97 42.541 193.425 43.0283 192.737 44.003C192.049 44.949 191.361 46.2103 190.673 47.787C189.985 49.3637 189.426 51.0263 188.996 52.775C188.681 54.151 188.323 55.0683 187.921 55.527C187.52 55.9857 186.861 56.215 185.943 56.215C184.854 56.215 184.08 55.6417 183.621 54.495C183.191 53.3483 182.976 51.5137 182.976 48.991C182.976 45.2643 183.507 41.724 184.567 38.37C184.825 37.5387 185.241 36.9367 185.814 36.564C186.416 36.1627 187.248 35.962 188.308 35.962C188.882 35.962 189.283 36.0337 189.512 36.177C189.742 36.3203 189.856 36.5927 189.856 36.994C189.856 37.4527 189.641 38.4847 189.211 40.09C188.925 41.2367 188.695 42.24 188.523 43.1C188.351 43.96 188.208 45.0207 188.093 46.282C189.039 43.8167 190.1 41.81 191.275 40.262C192.451 38.714 193.597 37.6103 194.715 36.951C195.833 36.2917 196.851 35.962 197.768 35.962C198.6 35.962 199.23 36.2057 199.66 36.693C200.119 37.1517 200.348 37.8397 200.348 38.757C200.348 39.3017 200.191 40.3337 199.875 41.853H200.262Z" fill="#B10000"/>
<path d="M87.97 69.1C87.47 69.1 87.0233 68.9767 86.63 68.73C86.2433 68.4833 85.94 68.1567 85.72 67.75C85.5 67.3367 85.39 66.89 85.39 66.41C85.39 65.9233 85.5 65.4767 85.72 65.07C85.9467 64.6567 86.2533 64.3267 86.64 64.08C87.0333 63.8267 87.4767 63.7 87.97 63.7C88.47 63.7 88.9133 63.8267 89.3 64.08C89.6933 64.3267 90 64.6567 90.22 65.07C90.4467 65.4767 90.56 65.9233 90.56 66.41C90.56 66.89 90.45 67.3367 90.23 67.75C90.01 68.1567 89.7033 68.4833 89.31 68.73C88.9233 68.9767 88.4767 69.1 87.97 69.1ZM86.08 66.42C86.08 66.8067 86.1633 67.16 86.33 67.48C86.5033 67.7933 86.7333 68.0433 87.02 68.23C87.3067 68.41 87.6233 68.5 87.97 68.5C88.3167 68.5 88.6333 68.4067 88.92 68.22C89.2067 68.0333 89.4367 67.78 89.61 67.46C89.7833 67.14 89.87 66.7867 89.87 66.4C89.87 66.0133 89.7833 65.66 89.61 65.34C89.4367 65.02 89.2067 64.7667 88.92 64.58C88.6333 64.3933 88.3167 64.3 87.97 64.3C87.63 64.3 87.3167 64.3967 87.03 64.59C86.7433 64.7767 86.5133 65.03 86.34 65.35C86.1667 65.67 86.08 66.0267 86.08 66.42ZM86.94 62.66V61.72H87.52V62.66H86.94ZM88.43 62.66V61.72H89.01V62.66H88.43ZM91.1498 68.54L94.6398 64.3H91.2298V63.79H95.4098V64.25L91.9398 68.49H95.3998V69H91.1498V68.54ZM96.4617 66.85V63.79H97.1417V66.73C97.1417 67.91 97.5451 68.5 98.3517 68.5C98.7517 68.5 99.1251 68.37 99.4717 68.11C99.8251 67.85 100.078 67.5033 100.232 67.07V63.79H100.912V68.18C100.912 68.36 100.992 68.4533 101.152 68.46V69C101.072 69.0133 101.008 69.02 100.962 69.02C100.922 69.02 100.878 69.02 100.832 69.02C100.692 69.0067 100.572 68.9533 100.472 68.86C100.378 68.7667 100.332 68.6533 100.332 68.52L100.312 67.82C100.085 68.2267 99.7751 68.5433 99.3817 68.77C98.9951 68.99 98.5751 69.1 98.1217 69.1C97.0151 69.1 96.4617 68.35 96.4617 66.85ZM97.6317 62.66V61.72H98.2117V62.66H97.6317ZM99.1217 62.66V61.72H99.7017V62.66H99.1217ZM106.829 69H106.149V66.09C106.149 65.4767 106.056 65.03 105.869 64.75C105.689 64.4633 105.409 64.32 105.029 64.32C104.763 64.32 104.499 64.3867 104.239 64.52C103.979 64.6467 103.749 64.8233 103.549 65.05C103.356 65.27 103.216 65.5233 103.129 65.81V69H102.449V63.79H103.069V64.97C103.276 64.59 103.579 64.2833 103.979 64.05C104.379 63.8167 104.813 63.7 105.279 63.7C105.666 63.7 105.973 63.7933 106.199 63.98C106.426 64.16 106.586 64.42 106.679 64.76C106.779 65.0933 106.829 65.49 106.829 65.95V69ZM113.378 69.1C112.971 69.1 112.595 68.9967 112.248 68.79C111.901 68.5767 111.631 68.31 111.438 67.99V69H110.828V61.7H111.508V64.88C111.741 64.5267 112.021 64.2433 112.348 64.03C112.675 63.81 113.055 63.7 113.488 63.7C113.855 63.7 114.181 63.7767 114.468 63.93C114.761 64.0833 115.011 64.29 115.218 64.55C115.425 64.8033 115.581 65.0933 115.688 65.42C115.795 65.74 115.848 66.07 115.848 66.41C115.848 66.8967 115.738 67.3433 115.518 67.75C115.305 68.1567 115.011 68.4833 114.638 68.73C114.265 68.9767 113.845 69.1 113.378 69.1ZM113.218 68.5C113.598 68.5 113.931 68.4 114.218 68.2C114.511 68 114.741 67.7433 114.908 67.43C115.075 67.11 115.158 66.77 115.158 66.41C115.158 66.0433 115.078 65.7 114.918 65.38C114.765 65.06 114.548 64.8 114.268 64.6C113.988 64.4 113.665 64.3 113.298 64.3C112.891 64.3 112.531 64.43 112.218 64.69C111.911 64.95 111.675 65.2533 111.508 65.6V67.22C111.541 67.46 111.651 67.6767 111.838 67.87C112.025 68.0633 112.245 68.2167 112.498 68.33C112.751 68.4433 112.991 68.5 113.218 68.5ZM117 62.7V61.7H117.68V62.7H117ZM117 69V63.79H117.68V69H117ZM120.888 69.1C120.461 69.1 120.064 69.03 119.698 68.89C119.338 68.7433 119.021 68.53 118.748 68.25L119.028 67.77C119.321 68.0433 119.614 68.2433 119.908 68.37C120.208 68.49 120.524 68.55 120.858 68.55C121.258 68.55 121.584 68.47 121.838 68.31C122.098 68.1433 122.228 67.9067 122.228 67.6C122.228 67.3933 122.164 67.2367 122.038 67.13C121.918 67.0167 121.741 66.9267 121.508 66.86C121.281 66.7933 121.008 66.7167 120.688 66.63C120.328 66.53 120.024 66.4267 119.778 66.32C119.538 66.2067 119.354 66.0667 119.228 65.9C119.108 65.7267 119.048 65.5033 119.048 65.23C119.048 64.8967 119.131 64.6167 119.298 64.39C119.471 64.1633 119.704 63.9933 119.998 63.88C120.298 63.76 120.631 63.7 120.998 63.7C121.398 63.7 121.751 63.7633 122.058 63.89C122.364 64.0167 122.614 64.1933 122.808 64.42L122.478 64.88C122.298 64.6667 122.074 64.51 121.808 64.41C121.548 64.3033 121.264 64.25 120.958 64.25C120.744 64.25 120.541 64.28 120.348 64.34C120.154 64.3933 119.994 64.4867 119.868 64.62C119.748 64.7467 119.688 64.9233 119.688 65.15C119.688 65.43 119.791 65.6233 119.998 65.73C120.204 65.8367 120.518 65.95 120.938 66.07C121.331 66.1767 121.674 66.2833 121.968 66.39C122.261 66.4967 122.488 66.64 122.648 66.82C122.808 66.9933 122.888 67.2367 122.888 67.55C122.888 68.0367 122.704 68.4167 122.338 68.69C121.971 68.9633 121.488 69.1 120.888 69.1ZM120.758 70.8C120.584 70.8 120.398 70.7767 120.198 70.73C119.998 70.6833 119.804 70.6133 119.618 70.52L119.818 70.13C119.958 70.1967 120.091 70.25 120.218 70.29C120.344 70.33 120.488 70.35 120.648 70.35C121.108 70.35 121.338 70.18 121.338 69.84C121.338 69.6667 121.278 69.5133 121.158 69.38C121.038 69.2533 120.864 69.1267 120.638 69L120.928 68.81C121.188 68.97 121.398 69.1367 121.558 69.31C121.718 69.4833 121.798 69.6967 121.798 69.95C121.798 70.2233 121.704 70.4333 121.518 70.58C121.331 70.7267 121.078 70.8 120.758 70.8ZM124.012 62.7V61.7H124.692V62.7H124.012ZM124.012 69V63.79H124.692V69H124.012ZM128.789 64.39C128.336 64.4033 127.936 64.53 127.589 64.77C127.249 65.01 127.009 65.34 126.869 65.76V69H126.189V63.79H126.829V65.04C127.009 64.6733 127.246 64.3767 127.539 64.15C127.839 63.9233 128.156 63.7967 128.489 63.77C128.556 63.7633 128.613 63.76 128.659 63.76C128.706 63.76 128.749 63.7633 128.789 63.77V64.39ZM134.23 69.1C133.73 69.1 133.283 68.9767 132.89 68.73C132.503 68.4833 132.2 68.1567 131.98 67.75C131.76 67.3367 131.65 66.89 131.65 66.41C131.65 65.9233 131.76 65.4767 131.98 65.07C132.206 64.6567 132.513 64.3267 132.9 64.08C133.293 63.8267 133.736 63.7 134.23 63.7C134.73 63.7 135.173 63.8267 135.56 64.08C135.953 64.3267 136.26 64.6567 136.48 65.07C136.706 65.4767 136.82 65.9233 136.82 66.41C136.82 66.89 136.71 67.3367 136.49 67.75C136.27 68.1567 135.963 68.4833 135.57 68.73C135.183 68.9767 134.736 69.1 134.23 69.1ZM132.34 66.42C132.34 66.8067 132.423 67.16 132.59 67.48C132.763 67.7933 132.993 68.0433 133.28 68.23C133.566 68.41 133.883 68.5 134.23 68.5C134.576 68.5 134.893 68.4067 135.18 68.22C135.466 68.0333 135.696 67.78 135.87 67.46C136.043 67.14 136.13 66.7867 136.13 66.4C136.13 66.0133 136.043 65.66 135.87 65.34C135.696 65.02 135.466 64.7667 135.18 64.58C134.893 64.3933 134.576 64.3 134.23 64.3C133.89 64.3 133.576 64.3967 133.29 64.59C133.003 64.7767 132.773 65.03 132.6 65.35C132.426 65.67 132.34 66.0267 132.34 66.42ZM133.2 62.66V61.72H133.78V62.66H133.2ZM134.69 62.66V61.72H135.27V62.66H134.69ZM137.41 68.54L140.9 64.3H137.49V63.79H141.67V64.25L138.2 68.49H141.66V69H137.41V68.54ZM142.721 66.85V63.79H143.401V66.73C143.401 67.91 143.805 68.5 144.611 68.5C145.011 68.5 145.385 68.37 145.731 68.11C146.085 67.85 146.338 67.5033 146.491 67.07V63.79H147.171V68.18C147.171 68.36 147.251 68.4533 147.411 68.46V69C147.331 69.0133 147.268 69.02 147.221 69.02C147.181 69.02 147.138 69.02 147.091 69.02C146.951 69.0067 146.831 68.9533 146.731 68.86C146.638 68.7667 146.591 68.6533 146.591 68.52L146.571 67.82C146.345 68.2267 146.035 68.5433 145.641 68.77C145.255 68.99 144.835 69.1 144.381 69.1C143.275 69.1 142.721 68.35 142.721 66.85ZM143.891 62.66V61.72H144.471V62.66H143.891ZM145.381 62.66V61.72H145.961V62.66H145.381ZM153.089 69H152.409V66.09C152.409 65.4767 152.316 65.03 152.129 64.75C151.949 64.4633 151.669 64.32 151.289 64.32C151.022 64.32 150.759 64.3867 150.499 64.52C150.239 64.6467 150.009 64.8233 149.809 65.05C149.616 65.27 149.476 65.5233 149.389 65.81V69H148.709V63.79H149.329V64.97C149.536 64.59 149.839 64.2833 150.239 64.05C150.639 63.8167 151.072 63.7 151.539 63.7C151.926 63.7 152.232 63.7933 152.459 63.98C152.686 64.16 152.846 64.42 152.939 64.76C153.039 65.0933 153.089 65.49 153.089 65.95V69ZM157.114 70.6C157.208 70.6067 157.298 70.61 157.384 70.61C157.471 70.6167 157.534 70.6133 157.574 70.6C157.654 70.5933 157.728 70.5467 157.794 70.46C157.868 70.38 157.954 70.2267 158.054 70C158.161 69.78 158.304 69.4467 158.484 69L156.214 63.79H156.934L158.844 68.3L160.604 63.79H161.284L158.584 70.51C158.511 70.7033 158.388 70.87 158.214 71.01C158.041 71.15 157.811 71.2233 157.524 71.23C157.464 71.2367 157.401 71.2367 157.334 71.23C157.268 71.23 157.194 71.2233 157.114 71.21V70.6ZM164.299 69.1C163.799 69.1 163.352 68.9767 162.959 68.73C162.565 68.4833 162.255 68.1533 162.029 67.74C161.802 67.3267 161.689 66.8733 161.689 66.38C161.689 65.8933 161.799 65.4467 162.019 65.04C162.245 64.6333 162.555 64.31 162.949 64.07C163.342 63.8233 163.789 63.7 164.289 63.7C164.802 63.7 165.252 63.8233 165.639 64.07C166.025 64.3167 166.325 64.6433 166.539 65.05C166.759 65.45 166.869 65.89 166.869 66.37C166.869 66.4767 166.865 66.5667 166.859 66.64H162.399C162.432 67.0133 162.539 67.3467 162.719 67.64C162.899 67.9267 163.129 68.1567 163.409 68.33C163.689 68.4967 163.995 68.58 164.329 68.58C164.669 68.58 164.989 68.4933 165.289 68.32C165.589 68.1467 165.802 67.92 165.929 67.64L166.519 67.8C166.412 68.0533 166.245 68.28 166.019 68.48C165.799 68.6733 165.542 68.8267 165.249 68.94C164.955 69.0467 164.639 69.1 164.299 69.1ZM162.379 66.15H166.229C166.202 65.7767 166.099 65.4467 165.919 65.16C165.739 64.8667 165.509 64.64 165.229 64.48C164.949 64.3133 164.639 64.23 164.299 64.23C163.959 64.23 163.649 64.3133 163.369 64.48C163.089 64.64 162.859 64.8667 162.679 65.16C162.505 65.4467 162.405 65.7767 162.379 66.15Z" fill="#B10000"/>
<path d="M65.7275 26.6205C41.2607 26.6205 23.9622 9.47443 6.80742 26.6205C-2.43005 35.8532 -5.83377 59.0803 20.1643 54.9426C39.7627 51.8234 67.1663 84.6615 65.7275 64.3002C65.7275 46.3337 92.9895 26.6205 65.7275 26.6205Z" fill="#B10000"/>
<path d="M65.7275 26.6205C41.2607 26.6205 22.0368 11.3989 6.80743 26.6205C-2.43005 35.8532 -2.02568 58.4743 20.1643 54.9426C39.7627 51.8234 65.7275 82.2667 65.7275 64.3002C65.7275 46.3337 90.1944 26.6205 65.7275 26.6205Z" fill="#F7FFFF"/>
<path d="M49 40.2378C49 32.0362 39.8401 29.3286 35.2602 29C25.5366 29 23 37.4777 23 40.2378C23 46.9411 30.187 48.9127 35.2602 48.9127C40.3333 48.9127 49 50.4899 49 40.2378Z" fill="#FFCC5F"/>
</svg>